<svg xmlns="http://www.w3.org/2000/svg" width="16" height="16" viewBox="0 0 16 16">
  <defs>
    <linearGradient id="ibatis-a" x1="0%" y1="50%" y2="50%">
      <stop offset="0%"/>
      <stop offset="100%" stop-color="#6D5656"/>
    </linearGradient>
    <linearGradient id="ibatis-b" x1="27.36%" x2="129.895%" y1="77.113%" y2="-16.561%">
      <stop offset="0%"/>
      <stop offset="100%" stop-color="#6D5656"/>
    </linearGradient>
    <linearGradient id="ibatis-c" x1="19.553%" x2="95.466%" y1="52.371%" y2="5.532%">
      <stop offset="0%"/>
      <stop offset="100%" stop-color="#6D5656"/>
    </linearGradient>
  </defs>
  <g fill="none" fill-rule="evenodd" transform="translate(1 2)">
    <path fill="#1A1A1A" stroke="#000" stroke-width=".5" d="M12.9611951,4.67110126 C13.9581293,4.96146212 13.9581293,4.96146212 13.9581293,4.96146212 L13.028482,5.23504067 L13.6645454,5.50202091 L12.9948953,5.62753946 L12.9611951,4.67110126 Z"/>
    <path fill="url(#ibatis-a)" d="M3.61020144,2.8099322 C3.4762385,4.51601719 5.51528819,7.25137256 7.53037864,7.4685689 C8.31777269,7.55343794 9.47341796,6.80778503 9.41325516,6.01626365 C9.24545707,3.80865836 5.84593045,3.69772847 3.61020144,2.8099322 Z"/>
    <path fill="url(#ibatis-b)" d="M0.0299308409,9.12403015 C2.23627984,11.5891231 6.20982692,12.7001327 9.09969316,11.5070431 C11.5106156,10.5116867 13.0738362,7.30067023 13.0746147,4.75401847 C13.0751461,3.00993317 11.3325683,1.02629014 8.75291638,1.84403085 C7.59415486,2.21135437 6.71005475,3.37815566 5.96327508,4.43800884 C4.29471983,6.66413882 2.815102,8.15968001 0.0299308409,9.12403015 Z"/>
    <path fill="url(#ibatis-c)" d="M1.68965728,4.14294793 C1.83003791,5.84851465 4.27984271,8.22118609 6.30362341,8.1120561 C7.09441278,8.06941325 8.11599078,7.14784844 7.93012823,6.37620494 C7.41174532,4.22404074 4.03838204,4.66033688 1.68965728,4.14294793 Z"/>
    <path fill="#D40000" d="M7.28441523,2.80003901 C7.98577394,2.86285481 9.22426983,3.08544853 10.2015676,3.14615009 C11.0036836,3.1959706 11.951449,3.17442779 12.6124881,3.16053615 C13.0912578,3.98310957 13.1300149,4.8601029 12.9948953,5.62753946 C11.5852992,5.86415488 10.5357349,5.68969028 9.38565154,5.32127695 C8.33935537,4.98610998 7.30158514,4.48111276 6.54945903,3.63953036 C6.88485766,3.16121911 6.99900062,3.05789595 7.28441523,2.80003901 Z"/>
    <g transform="rotate(21.134 -3.656 31.343)">
      <path fill="#FFF" d="M1.83899568,0.74419202 C1.83899568,1.13437654 1.43546715,1.45068368 0.937688153,1.45068368 C0.439909925,1.45068368 0.0363806281,1.13437654 0.0363806281,0.74419202 C0.0363806281,0.354007497 0.439909925,0.0377003574 0.937688153,0.0377003574 C1.43546715,0.0377003574 1.83899568,0.354007497 1.83899568,0.74419202 Z"/>
      <path fill="#1A1A1A" d="M1.7789064,0.722125098 C1.7789064,1.01660434 1.49643543,1.25532657 1.1479909,1.25532657 C0.799545756,1.25532657 0.517075402,1.01660434 0.517075402,0.722125098 C0.517075402,0.427646399 0.799545756,0.188923624 1.1479909,0.188923624 C1.49643543,0.188923624 1.7789064,0.427646399 1.7789064,0.722125098 Z"/>
      <path fill="#FFF" d="M1.53231498,0.446891584 C1.53231498,0.551005371 1.43720212,0.635406572 1.31987488,0.635406572 C1.20254702,0.635406572 1.10743416,0.551005371 1.10743416,0.446891584 C1.10743416,0.342777253 1.20254702,0.258376052 1.31987488,0.258376052 C1.43720212,0.258376052 1.53231498,0.342777253 1.53231498,0.446891584 Z"/>
    </g>
    <path fill="#1A1A1A" d="M12.4413775,4.28781531 C12.2650247,4.17757721 12.1187943,4.02631545 11.9432638,3.91472024 C11.7742353,3.80041115 11.599882,3.69016194 11.4103385,3.61343063 C11.3272555,3.58463924 11.2441118,3.55601058 11.1614186,3.52610552 C11.1048803,3.53961843 11.1721698,3.4889447 11.183934,3.47019126 C11.2411628,3.40617226 11.2983922,3.34215326 11.3556213,3.27813458 C11.4298716,3.28794085 11.4954601,3.32893576 11.5677772,3.34635235 C11.7634825,3.42669095 11.94035,3.54537756 12.1172031,3.65998337 C12.2909719,3.77753181 12.4531057,3.91224523 12.6282728,4.02728402 C12.6801437,4.03701219 12.6773564,4.07317601 12.6373927,4.09510573 C12.572054,4.15934204 12.5067165,4.22358031 12.4413775,4.28781531 Z"/>
    <path fill="#D40000" d="M7.42976707,3.74240845 C7.09170272,3.73062583 6.69818141,3.77275138 6.43908759,3.4593661 C6.21096076,3.2088342 6.02532967,2.89695373 5.9056137,2.55703149 C5.88485124,2.31011245 5.88462598,2.0084807 5.65965355,1.89116427 C5.39999901,1.72598538 5.09320645,1.74975714 4.80929047,1.70403246 C4.27351271,1.66831011 3.7630471,1.89222303 3.26364179,2.09030484 C3.02655119,2.18358416 2.73509672,2.16645382 2.5612728,1.92841431 C2.42586632,1.77272209 2.34357186,1.57108756 2.25809626,1.37807081 C2.13291485,1.25312184 2.12539691,1.05900842 2.29438198,1.00721483 C2.39842081,0.93650734 2.50245997,0.865800182 2.60649881,0.795093023 C2.76634049,1.14185766 2.88795575,1.58742873 3.22502645,1.74193866 C3.57107168,1.82975132 3.89202481,1.59399892 4.21824289,1.49849163 C4.68070722,1.32212322 5.17491085,1.29557515 5.65254604,1.38909531 C5.92756704,1.41806839 6.26038536,1.53760887 6.34353199,1.89299194 C6.36785211,2.20115891 6.42326995,2.50132277 6.60710606,2.7327421 C6.78105094,3.045897 7.03613036,3.34439887 7.37098587,3.3572713 C7.48182414,3.40085493 7.84454017,3.31182764 7.80460713,3.41865745 C7.67966045,3.52657445 7.55471376,3.63449145 7.42976707,3.74240845 Z"/>
    <path fill="#D40000" d="M7.20328232,3.57984574 C6.95813783,3.41960739 6.65825685,3.27824013 6.55399992,2.98327073 C6.48494214,2.78576144 6.4140043,2.58605621 6.37943303,2.37941446 C6.34913859,2.09859224 6.3802676,1.81559336 6.36629676,1.53413621 C6.41147485,1.35453237 6.29527448,1.18929694 6.11581332,1.15613849 C5.88060017,1.0874103 5.63179597,1.09644831 5.39063197,1.0631585 C5.16894793,1.05104779 4.90438184,1.09939258 4.72855234,0.932260865 C4.59519577,0.772841428 4.53726446,0.56651666 4.47118014,0.373368871 C4.45602885,0.272484127 4.58967915,0.268449077 4.6477764,0.208795171 C4.75378983,0.141371212 4.85980294,0.073947384 4.96581637,0.00652355582 C4.98882303,0.194454143 5.07105033,0.369864835 5.14453425,0.542144278 C5.24595822,0.723149337 5.46811301,0.73178607 5.6513796,0.727238306 C5.93875414,0.745565955 6.23063273,0.751244696 6.51205414,0.815238209 C6.68944454,0.856781446 6.89849989,0.982665985 6.87984113,1.18967143 C6.89180184,1.61855593 6.8209429,2.06330549 6.96804244,2.47686739 C7.02883181,2.66186371 7.08848572,2.86155391 7.25171652,2.98437752 C7.37411126,3.09811901 7.52803012,3.1728403 7.66442634,3.26360769 C7.55266614,3.36159064 7.410055,3.43540513 7.28650589,3.52460921 C7.25876405,3.54302051 7.23102253,3.56143247 7.20328232,3.57984574 Z"/>
  </g>
</svg>
